<mxfile host="app.diagrams.net" modified="2023-11-02T06:44:35.105Z" agent="Mozilla/5.0 (Windows NT 10.0; Win64; x64; rv:109.0) Gecko/20100101 Firefox/119.0" etag="udfkiMIphm_Tkyuz8d1H" version="22.0.8" type="github">
  <diagram name="Seite-1" id="60NqQOznhc1A8SArfkW2">
    <mxGraphModel dx="819" dy="415" grid="1" gridSize="10" guides="1" tooltips="1" connect="1" arrows="1" fold="1" page="1" pageScale="1" pageWidth="827" pageHeight="1169" math="0" shadow="0">
      <root>
        <mxCell id="0" />
        <mxCell id="1" parent="0" />
        <mxCell id="De6Wa1WC866q7eQohw9J-1" value="u10 Leben verloren" style="swimlane;html=1;childLayout=stackLayout;startSize=20;rounded=0;shadow=0;comic=0;labelBackgroundColor=none;strokeWidth=1;fontFamily=Verdana;fontSize=12;align=left;" vertex="1" parent="1">
          <mxGeometry x="40" y="20" width="550" height="290" as="geometry" />
        </mxCell>
        <mxCell id="De6Wa1WC866q7eQohw9J-2" value="Anwender" style="swimlane;html=1;startSize=20;" vertex="1" parent="De6Wa1WC866q7eQohw9J-1">
          <mxGeometry y="20" width="250" height="270" as="geometry" />
        </mxCell>
        <mxCell id="De6Wa1WC866q7eQohw9J-6" value="System" style="swimlane;html=1;startSize=20;" vertex="1" parent="De6Wa1WC866q7eQohw9J-1">
          <mxGeometry x="250" y="20" width="300" height="270" as="geometry" />
        </mxCell>
        <mxCell id="De6Wa1WC866q7eQohw9J-22" style="edgeStyle=orthogonalEdgeStyle;rounded=0;orthogonalLoop=1;jettySize=auto;html=1;exitX=0;exitY=0.5;exitDx=0;exitDy=0;entryX=1;entryY=0.5;entryDx=0;entryDy=0;" edge="1" parent="De6Wa1WC866q7eQohw9J-6" source="De6Wa1WC866q7eQohw9J-3" target="De6Wa1WC866q7eQohw9J-12">
          <mxGeometry relative="1" as="geometry" />
        </mxCell>
        <mxCell id="De6Wa1WC866q7eQohw9J-3" value="" style="ellipse;html=1;shape=startState;fillColor=#000000;strokeColor=#ff0000;" vertex="1" parent="De6Wa1WC866q7eQohw9J-6">
          <mxGeometry x="240" y="40" width="30" height="30" as="geometry" />
        </mxCell>
        <mxCell id="De6Wa1WC866q7eQohw9J-21" style="edgeStyle=orthogonalEdgeStyle;rounded=0;orthogonalLoop=1;jettySize=auto;html=1;exitX=0.5;exitY=1;exitDx=0;exitDy=0;entryX=0.5;entryY=0;entryDx=0;entryDy=0;" edge="1" parent="De6Wa1WC866q7eQohw9J-6" source="De6Wa1WC866q7eQohw9J-12" target="De6Wa1WC866q7eQohw9J-13">
          <mxGeometry relative="1" as="geometry" />
        </mxCell>
        <mxCell id="De6Wa1WC866q7eQohw9J-12" value="leben verringern" style="rounded=1;whiteSpace=wrap;html=1;" vertex="1" parent="De6Wa1WC866q7eQohw9J-6">
          <mxGeometry x="120" y="40" width="90" height="30" as="geometry" />
        </mxCell>
        <mxCell id="De6Wa1WC866q7eQohw9J-13" value="" style="rhombus;whiteSpace=wrap;html=1;" vertex="1" parent="De6Wa1WC866q7eQohw9J-6">
          <mxGeometry x="150" y="110" width="30" height="30" as="geometry" />
        </mxCell>
        <mxCell id="De6Wa1WC866q7eQohw9J-14" value="einschlafen" style="rounded=1;whiteSpace=wrap;html=1;" vertex="1" parent="De6Wa1WC866q7eQohw9J-6">
          <mxGeometry x="10" y="160" width="70" height="30" as="geometry" />
        </mxCell>
        <mxCell id="De6Wa1WC866q7eQohw9J-16" value="" style="endArrow=classic;html=1;rounded=0;entryX=0.5;entryY=0;entryDx=0;entryDy=0;exitX=0;exitY=0.5;exitDx=0;exitDy=0;" edge="1" parent="De6Wa1WC866q7eQohw9J-6" source="De6Wa1WC866q7eQohw9J-13" target="De6Wa1WC866q7eQohw9J-14">
          <mxGeometry relative="1" as="geometry">
            <mxPoint x="24" y="120" as="sourcePoint" />
            <mxPoint x="124" y="120" as="targetPoint" />
            <Array as="points">
              <mxPoint x="45" y="125" />
            </Array>
          </mxGeometry>
        </mxCell>
        <mxCell id="De6Wa1WC866q7eQohw9J-17" value="Wenn Lebel = 0" style="edgeLabel;resizable=0;html=1;align=center;verticalAlign=middle;" connectable="0" vertex="1" parent="De6Wa1WC866q7eQohw9J-16">
          <mxGeometry relative="1" as="geometry">
            <mxPoint x="15" as="offset" />
          </mxGeometry>
        </mxCell>
        <mxCell id="De6Wa1WC866q7eQohw9J-18" value="" style="endArrow=classic;html=1;rounded=0;entryX=0.5;entryY=0;entryDx=0;entryDy=0;exitX=1;exitY=0.5;exitDx=0;exitDy=0;" edge="1" parent="De6Wa1WC866q7eQohw9J-6" source="De6Wa1WC866q7eQohw9J-13" target="De6Wa1WC866q7eQohw9J-7">
          <mxGeometry relative="1" as="geometry">
            <mxPoint x="217.5" y="100" as="sourcePoint" />
            <mxPoint x="240" y="160" as="targetPoint" />
            <Array as="points">
              <mxPoint x="235" y="125" />
            </Array>
          </mxGeometry>
        </mxCell>
        <mxCell id="De6Wa1WC866q7eQohw9J-19" value="Wenn Lebel &amp;gt; 0" style="edgeLabel;resizable=0;html=1;align=center;verticalAlign=middle;" connectable="0" vertex="1" parent="De6Wa1WC866q7eQohw9J-18">
          <mxGeometry relative="1" as="geometry">
            <mxPoint x="15" as="offset" />
          </mxGeometry>
        </mxCell>
        <mxCell id="De6Wa1WC866q7eQohw9J-7" value="" style="ellipse;html=1;shape=endState;fillColor=#000000;strokeColor=#ff0000;" vertex="1" parent="De6Wa1WC866q7eQohw9J-6">
          <mxGeometry x="220" y="170" width="30" height="30" as="geometry" />
        </mxCell>
        <mxCell id="De6Wa1WC866q7eQohw9J-10" value="Weiter mit u09&lt;br style=&quot;font-size: 10px;&quot;&gt;(Spielen)" style="text;html=1;strokeColor=none;fillColor=none;align=center;verticalAlign=middle;whiteSpace=wrap;rounded=0;fontSize=10;" vertex="1" parent="De6Wa1WC866q7eQohw9J-6">
          <mxGeometry x="197.5" y="200" width="75" height="20" as="geometry" />
        </mxCell>
      </root>
    </mxGraphModel>
  </diagram>
</mxfile>
